nColumns=19
nRows=28
DataType=double
version=3
OpenSimVersion=4.5.2-2025-05-03-6a4c6ec41
endheader
time	force3_vx	force3_vy	force3_vz	force3_px	force3_py	force3_pz	moment3_x	moment3_y	moment3_z	force4_vx	force4_vy	force4_vz	force4_px	force4_py	force4_pz	moment4_x	moment4_y	moment4_z
0	0.006850903028581444	-0.008987184738607365	-0.004583290297731912	0.01950496550299045	-0.00300000183902176	0.01202677423947232	-2.413665224767859e-08	0.1607128852521999	-6.140890222699868e-20	-0.005185053076853862	-0.01167857825853624	0.005439030057313868	0.1014188448521287	-0.002999999073531791	-9.080464600466024e-06	-2.356843109349445e-08	0.1569293991344894	3.968327479993158e-19
0.001	0.005629523513923255	-0.007774142433055646	-0.003620068774033381	0.02466247325676967	-0.003000001064441525	0.006800841720935393	-1.778399414616567e-08	0.1184139780958701	-5.223697729935478e-20	-0.004343317366167844	-0.009852649434850137	0.004991456687326145	0.1462164516083853	-0.002999992345607233	0.02971329092726636	1.60278780741969e-08	-0.1067209465752677	2.902252445784317e-19
0.002	0.00444963919552933	-0.006611403538465301	-0.002684654751506246	0.02938094859867142	-0.003000000355797324	0.001972685938022498	-1.188204776742703e-08	0.07911611601575899	-4.404677055740481e-20	-0.003712760588334307	-0.008133046652703937	0.004537806857912361	0.18108724545147	-0.002999987108540267	0.0526738851524165	4.811197668332832e-08	-0.3203515567985811	1.872594198057818e-19
0.003	0.003353851793446929	-0.005546683440249943	-0.001791028719717563	0.0333056227221319	-0.002999999766370076	-0.00226014423174708	-6.786782057710264e-09	0.04518950328971322	-3.682305616768499e-20	-0.003384683027756563	-0.006614236532576042	0.004081438987960151	0.2003951240869519	-0.002999984208788446	0.06504826352606546	6.831729880076945e-08	-0.4548878374120841	9.04321675465271e-20
0.004	0.00235996923688545	-0.004609593522865551	-0.0009448129640459344	0.03615732811388911	-0.002999999338086535	-0.005766565566236103	-2.805301695407933e-09	0.01867898352035273	-3.060367153365339e-20	-0.003352603433374382	-0.005312341671309949	0.003618223641979332	0.2048853601838517	-0.00299998353442298	0.0672724823642198	7.730223653162682e-08	-0.5147136643317837	3.593363234890058e-21
0.005	0.001484974513140034	-0.00383333270798951	-0.0001681783994464076	0.03774492128993087	-0.002999999099653583	-0.008436845790665705	-1.692640380990131e-10	0.001127037493426255	-2.541116375216203e-20	-0.003559566519064117	-0.004201062989542708	0.003153861604254474	0.1990103571461403	-0.002999984416759936	0.06227645926140938	7.859621531232423e-08	-0.5233295671784437	-6.825345210281613e-20
0.006	0.0007599629484492674	-0.00324392313005616	0.000497755227473464	0.03798532762279626	-0.002999999063547803	-0.01017333571106776	1.028481077231698e-09	-0.006848098051279269	-2.111550028795943e-20	-0.003910585203162798	-0.00325462608239006	0.002702450649232197	0.1871826358287513	-0.002999986193105177	0.05302148268873814	7.569420231210146e-08	-0.5040066366618071	-1.195706592865246e-19
0.007	0.0001977380643569519	-0.002833233445729531	0.001017118338710988	0.0369688261319613	-0.002999999216210678	-0.01095642533145218	8.896124969801084e-10	-0.005923447441985447	-1.725881169297612e-20	-0.004261560119318291	-0.002460937164136606	0.002277986734997905	0.1726005315646033	-0.002999988383116972	0.04171649690871754	7.116438388925147e-08	-0.4738450327574286	-1.45168394398583e-19
0.008	-0.0002309965905262283	-0.002562724846487108	0.001376995652361464	0.03498646098586527	-0.002999999513931791	-0.01089058847766104	-3.103694649689893e-10	0.002066582052426068	-1.287979256344655e-20	-0.004466229091826635	-0.001817383865921168	0.001897233473264043	0.1574230871247828	-0.002999990662539706	0.02987153449593751	6.671598930544514e-08	-0.4442255860327815	-1.411767917237583e-19
0.008999999999999999	-0.0005562781335467712	-0.002391931155101053	0.001582273937186079	0.03242686077181548	-0.002999999898345013	-0.01017661680143773	-2.201603660753665e-09	0.01465928551319673	-6.378170918330098e-21	-0.0044460367205862	-0.0013297439335311	0.001584078152950687	0.1429724560153436	-0.002999992832805946	0.01838854473750837	6.331958973511834e-08	-0.4216108035005854	-1.059465944557952e-19
0.01	-0.0007702474206739342	-0.002309138638237549	0.001644390060477208	0.0296617878713772	-0.003000000313617254	-0.009063607596403348	-4.42320487469483e-09	0.02945172388890176	4.541456393917089e-21	-0.004191039360376682	-0.001016004142359977	0.00136578273437363	0.1299045853403712	-0.002999994795402431	0.007720926754937111	6.135231409300049e-08	-0.4085117820492571	-4.074693338113705e-20
0.011	-0.0008606167920690071	-0.002344378984291456	0.001576754282044662	0.02704769326022263	-0.00300000070621495	-0.007810699397220179	-6.714635765732377e-09	0.04470912023656488	2.281169647581244e-20	-0.003716890228445291	-0.0009015644793854708	0.001263213692212789	0.1184198613225015	-0.002999996520234278	-0.001897902023028839	6.066227854501859e-08	-0.4039172096094582	4.982437949977312e-20
0.012	-0.0008538111409491732	-0.002533430063301497	0.001395313353799161	0.02495239329061542	-0.003000001020897616	-0.006639047733355698	-8.894973615476717e-09	0.05922680823448486	5.18028550315542e-20	-0.003050590133664152	-0.0009974839420731289	0.001273942422206583	0.1084964588921005	-0.002999998010579374	-0.0102367025815627	6.060650106620977e-08	-0.4035458176303851	1.577480577566042e-19
0.013	-0.000797659455638401	-0.002851637522118598	0.001122184408916605	0.02370698371282558	-0.003000001207939632	-0.00569775741158977	-1.073269378525836e-08	0.07146319080016846	9.496331500382279e-20	-0.002229490638683196	-0.00128565399945857	0.001364388596114112	0.1000600644403681	-0.002999999277598562	-0.01691990208825296	6.008897929120171e-08	-0.4000999208327007	2.717843411585433e-19
0.014	-0.0007233874269339967	-0.003197443925153587	0.0007873931487970023	0.02352882967386041	-0.003000001234695991	-0.005088933553849863	-1.190309076639012e-08	0.07925622994176294	1.552910359593312e-19	-0.001287394863917042	-0.001718657678343095	0.001485155666377365	0.09310995052793804	-0.003000000321401114	-0.0214671788637516	5.779979439932002e-08	-0.3848574802895294	3.80082453911381e-19
0.015	-0.0006378123355650145	-0.003439175809821975	0.0004230272878589546	0.02447362034941984	-0.003000001092802974	-0.00491534826956995	-1.208649846630605e-08	0.08047744240798012	2.346374658932622e-19	-0.0002683454367299688	-0.002219536147094655	0.001591128949791815	0.08776652995529366	-0.00300000112390282	-0.02366734052997506	5.296647485502988e-08	-0.3526750270343662	4.772771257954754e-19
0.016	-0.0005325451337423617	-0.003466993724417216	5.224610952621819e-05	0.02642471667532674	-0.00300000079977797	-0.005258288870209694	-1.107343267185306e-08	0.07373198636391982	3.328555167729297e-19	0.0007329960690737273	-0.002694109827132057	0.001646192494182529	0.08410715139858524	-0.003000001673487014	-0.02390411328955727	4.590112764715151e-08	-0.3056307122190031	5.69378761199886e-19
0.017	-0.0003957478532745471	-0.003226074957132713	-0.0003131360640519777	0.02912254364372322	-0.003000000394605195	-0.006105687107924502	-8.835159763584021e-09	0.05882854021131435	4.468146741508132e-19	0.001578451836577712	-0.003047885974451328	0.001612099186017676	0.08199715925109539	-0.003000001990376848	-0.02290916938676533	3.758869820488342e-08	-0.250282753222143	6.697144152596093e-19
0.018	-0.0002330634232337625	-0.002721590740746463	-0.0006542625629017252	0.03222544724203934	-0.002999999928595912	-0.007343794396034596	-5.537136952761019e-09	0.03686879384213447	5.693203174869842e-19	0.002149612310286869	-0.003172789291868781	0.001435621813076659	0.08122537329633661	-0.003000002106288297	-0.0212669128466095	2.910385580955678e-08	-0.1937867898876776	7.922358348962221e-19
0.019	-7.665571260016187e-05	-0.001988768637739517	-0.0009327105391056238	0.03536743113104178	-0.002999999456717247	-0.008810337884946671	-1.464362841831809e-09	0.009750398480806822	6.879931160861207e-19	0.002391359929943097	-0.002930398046241325	0.001053276328381477	0.08167885800645469	-0.003000002038182462	-0.01924811270300352	2.146697639545657e-08	-0.1429369521103545	9.485148898141107e-19
0.02	4.048955203910396e-05	-0.001063563577387713	-0.001116743324379156	0.0381896389842185	-0.002999999032864021	-0.01032364405899209	3.051617634246863e-09	-0.02031906784818534	7.841905206938135e-19	0.002314257265977228	-0.002192203858875858	0.0004246124959524194	0.08326807274246967	-0.003000001799506897	-0.01693943887241073	1.551140498587121e-08	-0.1032820323943263	1.146077120148865e-18
0.021	0.00010773121425467	2.312084845850119e-05	-0.00120858408877153	0.04036751462388925	-0.002999998705779704	-0.01168343519987038	7.657600835246603e-09	-0.05098781354097307	8.320884172744426e-19	0.001999527000039196	-0.0009090594334379887	-0.0004289986216057251	0.08579673621599496	-0.003000001419740018	-0.01438805802883804	1.168282205978171e-08	-0.07778957531252351	1.385831013436981e-18
0.022	0.0001212495251080923	0.001242367208066258	-0.001229680037095928	0.04165139596883986	-0.002999998512959814	-0.0126820680141034	1.200662486713938e-08	-0.07994560739859521	7.980887982699802e-19	0.001591689827851825	0.0008628990935662869	-0.001420010124963382	0.088937684983127	-0.003000000948016806	-0.01167389189822906	9.994581153830668e-09	-0.0665484948227172	1.658661519677171e-18
0.023	7.044165196661226e-05	0.002560920393281861	-0.001197172442353891	0.04187165538963511	-0.002999998479879904	-0.01312205206347888	1.577220547284633e-08	-0.1050185677076335	6.495069126226071e-19	0.001233985558454696	0.002981428218138414	-0.002423802058738389	0.09230206794175208	-0.003000000442736841	-0.008917612467143565	1.008726616913115e-08	-0.06716563406944841	1.941392862421391e-18
0.024	-3.361695010869772e-05	0.003929462426329831	-0.001126050273855845	0.04086346385117404	-0.002999998631294851	-0.0128245812111388	1.861226768866892e-08	-0.1239290026894377	3.815177456333749e-19	0.00100044317256344	0.005245755591522619	-0.003314980091656896	0.09557339149217252	-0.002999999951432737	-0.006230648189145759	1.133255467204462e-08	-0.07545733476867902	2.192467989544039e-18
0.025	-0.0001366565263012144	0.005256349541040243	-0.001034696960250213	0.03839315776757413	-0.002999999002297435	-0.01163475623100741	2.009624612770714e-08	-0.1338100107990658	3.633134613542625e-20	0.0009047939609877379	0.007406942482750678	-0.00399024384860623	0.09860240192797619	-0.002999999496520233	-0.003690676303752458	1.298161546484837e-08	-0.08643753614035407	2.347839955423047e-18
0.026	-0.0001759391451237897	0.006358740524928627	-0.0009315471359249157	0.03417229546319336	-0.002999999636207268	-0.009429912320226358	1.961335301750652e-08	-0.130594687306705	-3.116670053448751e-19	0.0009416139494243844	0.009149218888163521	-0.004354003021299981	0.1013615473433939	-0.002999999082137316	-0.001393532214107125	1.427735724676417e-08	-0.09506517785860742	2.335180526347692e-18
0.027	-0.0001184360964448947	0.006966223784458144	-0.0008062807359469797	0.02788702857534634	-0.00300000058015965	-0.006132477380838453	1.638622340339923e-08	-0.1091069803110217	-5.877265211348881e-19	0.001085912301197183	0.01012064717534104	-0.004307909499277285	0.1038084608567999	-0.002999998714646969	0.0004944217719259677	1.457950225604368e-08	-0.09707699759443572	2.124585913765985e-18
